<?xml version="1.0" encoding="UTF-8"?><svg id="a" xmlns="http://www.w3.org/2000/svg" viewBox="0 0 2194.83 2029.21"><defs><style>.b{fill:none;}.c{fill:#749cb3;}</style></defs><path class="c" d="M2182.62,101.03c-33.5-111.23-71.97-107.79-85.3-94.46-25.92,25.89-132.59,89.9-132.59,89.9,0,0-38.09,6.1-57.91,0-86.85-26.68-179.04,26.68-220.94,68.57-41.93,41.9-97.55,348.97-97.55,348.97,143.25,103.61,347.43,71.59,396.22,63.98,0-131.04,27.43-164.58,27.43-164.58,0,0,88.36-121.89,126.48-159.98,38.09-38.13,56.37-89.93,56.37-112.77s0-27.43-12.21-39.64Zm-101.15,121.55c-1.89-1.1-1.3-3.98,.86-4.32,16.8-2.57,61.78-12.27,82.87-66.93,.34-.82,1.58-.51,1.41,.34-6.82,34.49-38.88,98.2-85.13,70.91Z"/><path class="b" d="M2166.61,151.68c-6.82,34.49-38.88,98.2-85.13,70.91-1.89-1.1-1.3-3.98,.86-4.32,16.8-2.57,61.78-12.27,82.87-66.93,.34-.82,1.58-.51,1.41,.34Z"/><path class="c" d="M309.45,1690.81c-2.43,6.03-2.2,44.66,1.43,67.8-3.57-23.11-3.66-61.69-1.43-67.8Z"/><path class="c" d="M1914.82,1820.72c-58.84-26.3-92.27-74.03-105.13-86.88-16.59-84.55-6.86-239.43-6.86-264.01s38.85-163.99,49.72-207.98c-116.03,68.57-177.16,50.84-186.86,48-8.4-1.92-22.25-9.64-24.83-12.79-1.4-1.65-.17-6.65,2.03-6.65h31.95c.65,0,.79-.93,.17-1.07-17.38-4.25-80.88-19.95-92.19-26.36-8.16-4.63-9.5-11.21-9.33-15.57,.1-2.4,2.33-4.15,4.7-3.74,7.16,1.27,22.59,3.78,33.67,4.32,.62,.04,.75-.89,.14-1.06-38.68-11.55-78.12-28.37-88.05-33.67-33.98-22.28-23.83-35.11-18.41-36.68,1.37-.38,2.81-.28,4.08,.3,6.13,2.85,28.01,12.66,45.87,16.74,.14,.03,.21-.21,.04-.28-52.98-26.74-73.34-57.39-81.85-85.23-8.57-27.98,13.41-35.15,21.71-26.85,88.56,78.28,148.56,58.29,171.43,58.29s54.86-5.73,59.42-10.29c4.59-4.56-68.57-27.43-68.57-27.43,0,0-29.7-11.42-25.14-31.99,4.56-20.57,43.44-11.45,43.44-11.45,0,0,141.71,21.74,165.71,21.74s86.85-53.73,107.42-88.02c9.16-45.7,0-102.86,0-132.58s27.43-221.7,27.43-221.7c-278.85,35.42-366.28-49.72-398-67.17-38.57,86.03-141.43,141.43-159.71,151.17-65.72,19.41-160.59,36.55-257.15,49.13-102.31,20.58-254.88,28.57-286.29,28.57,5.14,59.45,49.13,57.15,63.43,57.15,56.57,4.01,142.84-14.3,150.28-14.3,20.57,0,26.85,34.29,17.14,44.03-25.23,25.23-74.74,32.02-90.27,36.07-.59,.17-.62,.99-.07,1.27,113.52,51.73,205.27-13.44,221.76-29.94,16.6-16.56,22.29,6.86,22.29,17.15,0,53.52-78.82,83.55-94.77,91.61-.44,.24-.27,.93,.24,.93,11.45-.65,28.25-6.41,37.41-9.09,22.83-7.27,19.87,5.79,14.5,13.75-5.37,7.95-24.04,22.24-43.28,31-20.83,9.49-68.39,22.38-68.39,22.38h27.43c12,0,18.58,0,12.58,6-24.61,19.2-86.23,29.08-102.72,31.44-.34,.04-.31,.55,.07,.55h33.39c1.86,0,2.82,2.3,1.48,3.6-20.33,19.89-61.61,15.26-76.22,15.26-126.86-12-325.72-270.28-341.74-286.29-26.26,14.3-49.71,16.01-58.28,16.01-38.27,2.3-113.7-34.87-233.15-79.44-94.29-48.55-218.27-54.86-293.7-40.56C4.64,741.38-2.77,769.49,.69,793.59c.42,2.99,3.23,4.98,6.21,4.53,123.19-17.45,277.45,100.6,307.89,123.12,30.86,22.87,118.29,46.29,135.99,50.88-113.7,212.58-109.72,333.13-125.7,390.87-16.01,57.71-137.15,115.99-160.6,144.56-22.83,29.14-26.26,92.57-26.26,153.15-6.86,91.99,17.69,164,46.83,213.71,29.15,49.72,150.32,42.31,184.6,39.43,48.55,75.43,91.99,98.3,108.01,108,42.27,16.6,108.55,0,117.12,0,34.87-6.27,89.73-38.84,95.73-67.13s-39.64-52.29-67.72-52.29c-29.72,0-62.3,0-86.3-6.85-104.57-56.58-67.41-128.58-52.56-155.42,14.85-26.89,181.14-134.31,211.45-155.46,108.55-67.99,166.29-191.42,169.71-213.13,147.99,51.98,592,0,636.02-4.01-26.3,65.15-29.38,185.73-29.38,214.29,8.33,53.15,59.08,125.73,75.67,152.58,28.56,33.7,115.13,24.86,123.43,16.56,24,58.87,111.98,155.46,142.29,178.29,30.28,22.87,103.41,6.86,115.99,6.86,38.3-14.27,44.58-37.72,44.58-54.86-4.02-27.98-43.45-52.56-58.87-60.55Zm-1499.46-246.11c-.31,.38-.64,.77-.97,1.17-21.29,25.02-96.98,93.12-104.94,115.03-2.23,6.11-2.14,44.69,1.43,67.8,.09,.54,.18,1.07,.26,1.59,.14,.82,.28,1.61,.43,2.38,.06,.35,.13,.69,.2,1.02,.13,.67,.27,1.32,.41,1.94,.22,.97,.45,1.89,.69,2.75,.69,2.51-.96,5.04-3.53,5.42-11.93,1.72-34.01,1.99-41.07,2.03-1.68,.03-3.26-.83-4.05-2.3-1.92-3.47-4.66-11.83-4.66-31.2,0-29.73-7.65-70.87,18.27-102.11,25.89-31.23,52.19-58.29,80.75-70.08,16.66-9.26,44.74-22.42,64.49-84.45,.45-1.34,2.4-1.16,2.57,.24,1.96,17.69,6,69.05-10.28,88.77Zm1247.62,63.09c-110.71-65.04-23.56-241.59-2.67-280.3,.68-1.27,2.57-.51,2.26,.86-31.1,138.72,.65,247.62,1.92,278.58,.03,.75-.82,1.27-1.51,.86Z"/><path class="b" d="M415.36,1574.61c-.31,.38-.64,.77-.97,1.17-21.29,25.02-96.98,93.12-104.94,115.03-2.23,6.11-2.14,44.69,1.43,67.8,.09,.54,.18,1.07,.26,1.59,.14,.82,.28,1.61,.43,2.38,.06,.35,.13,.69,.2,1.02,.13,.67,.27,1.32,.41,1.94,.22,.97,.45,1.89,.69,2.75,.69,2.51-.96,5.04-3.53,5.42-11.93,1.72-34.01,1.99-41.07,2.03-1.68,.03-3.26-.83-4.05-2.3-1.92-3.47-4.66-11.83-4.66-31.2,0-29.73-7.65-70.87,18.27-102.11,25.89-31.23,52.19-58.29,80.75-70.08,16.66-9.26,44.74-22.42,64.49-84.45,.45-1.34,2.4-1.16,2.57,.24,1.96,17.69,6,69.05-10.28,88.77Z"/><path class="c" d="M35.92,714.39s124-69.14,361.15,45.14c-31.43-23.43-273.72-171.43-361.15-45.14Z"/><path class="c" d="M99.35,638.96c-6.98,8.32,100.57-45.72,250.86,55.43-18.57-18.57-176.58-144-250.86-55.43Z"/><path class="b" d="M1664.49,1636.84c.03,.75-.82,1.27-1.51,.86-110.71-65.04-23.56-241.59-2.67-280.3,.68-1.27,2.57-.51,2.26,.86-31.1,138.72,.65,247.62,1.92,278.58Z"/></svg>